<svg width="24" height="24" viewBox="0 0 24 24" fill="none" xmlns="http://www.w3.org/2000/svg">
    <g clip-path="url(#clip0_649_8)">
        <path d="M23.1723 6.17229C23.2504 6.25039 23.2504 6.37721 23.1713 6.45433C20.185 9.36691 16.1767 11 12 11C7.82329 11 3.81495 9.36691 0.828683 6.45433C0.749609 6.37721 0.749608 6.25039 0.827713 6.17229L4.31611 2.68389C4.39421 2.60579 4.52076 2.60598 4.60031 2.68261C6.58602 4.59527 9.23778 5.66667 12 5.66667C14.7622 5.66667 17.414 4.59527 19.3997 2.68261C19.4792 2.60598 19.6058 2.60579 19.6839 2.68389L23.1723 6.17229Z" fill="#BB254A"/>
        <path d="M23.1723 17.1611C23.2504 17.083 23.2504 16.9562 23.1713 16.879C20.185 13.9665 16.1767 12.3334 12 12.3334C7.82329 12.3334 3.81495 13.9665 0.828683 16.879C0.749609 16.9562 0.749608 17.083 0.827713 17.1611L4.31611 20.6495C4.39421 20.7276 4.52076 20.7274 4.60031 20.6508C6.58602 18.7381 9.23778 17.6667 12 17.6667C14.7622 17.6667 17.414 18.7381 19.3997 20.6508C19.4792 20.7274 19.6058 20.7276 19.6839 20.6495L23.1723 17.1611Z" fill="#BB254A"/>
    </g>
    <defs>
        <clipPath id="clip0_649_8">
            <rect width="24" height="24" fill="white"/>
        </clipPath>
    </defs>
</svg>
