<svg width="219" height="24" viewBox="0 0 219 24" fill="none" xmlns="http://www.w3.org/2000/svg">
    <g clip-path="url(#clip0_649_9)">
        <g clip-path="url(#clip1_649_9)">
            <path d="M23.1723 6.17229C23.2504 6.25039 23.2504 6.37721 23.1713 6.45433C20.185 9.36691 16.1767 11 12 11C7.82329 11 3.81495 9.36691 0.828683 6.45433C0.749609 6.37721 0.749608 6.25039 0.827713 6.17229L4.31611 2.68389C4.39421 2.60579 4.52076 2.60598 4.60031 2.68261C6.58602 4.59527 9.23778 5.66667 12 5.66667C14.7622 5.66667 17.414 4.59527 19.3997 2.68261C19.4792 2.60598 19.6058 2.60579 19.6839 2.68389L23.1723 6.17229Z" fill="#BB254A"/>
            <path d="M23.1723 17.1611C23.2504 17.083 23.2504 16.9562 23.1713 16.879C20.185 13.9665 16.1767 12.3334 12 12.3334C7.82329 12.3334 3.81495 13.9665 0.828683 16.879C0.749609 16.9562 0.749608 17.083 0.827713 17.1611L4.31611 20.6495C4.39421 20.7276 4.52076 20.7274 4.60031 20.6508C6.58602 18.7381 9.23778 17.6667 12 17.6667C14.7622 17.6667 17.414 18.7381 19.3997 20.6508C19.4792 20.7274 19.6058 20.7276 19.6839 20.6495L23.1723 17.1611Z" fill="#BB254A"/>
        </g>
        <path d="M46.6227 8.794L39.8322 15.706H46.6227V19H35.0937V15.706L41.8842 8.794H35.0937V5.5H46.6227V8.794ZM54.9418 19.351C53.6998 19.351 52.5658 19.0315 51.5398 18.3925C50.5228 17.7535 49.7083 16.8985 49.0963 15.8275C48.4933 14.7475 48.1918 13.5505 48.1918 12.2365C48.1918 10.9315 48.4933 9.739 49.0963 8.659C49.7083 7.579 50.5228 6.7195 51.5398 6.0805C52.5658 5.4415 53.6998 5.122 54.9418 5.122C55.9948 5.122 56.9578 5.347 57.8308 5.797C58.7038 6.238 59.4463 6.8455 60.0583 7.6195C60.6793 8.3845 61.1248 9.262 61.3948 10.252C61.6738 11.242 61.7413 12.2815 61.5973 13.3705H51.7288C51.9088 14.1265 52.2778 14.761 52.8358 15.274C53.3938 15.787 54.0958 16.048 54.9418 16.057C55.5088 16.057 56.0308 15.9175 56.5078 15.6385C56.9848 15.3595 57.3808 14.977 57.6958 14.491L61.0573 15.274C60.5083 16.471 59.6893 17.452 58.6003 18.217C57.5113 18.973 56.2918 19.351 54.9418 19.351ZM51.6208 10.9H58.2628C58.1008 10.09 57.7093 9.406 57.0883 8.848C56.4763 8.281 55.7608 7.9975 54.9418 7.9975C54.1228 7.9975 53.4073 8.2765 52.7953 8.8345C52.1923 9.3925 51.8008 10.081 51.6208 10.9ZM71.0562 8.794H68.4372V19H65.1432V8.794H63.1452V5.5H65.1432V1.261H68.4372V5.5H71.0562V8.794ZM83.3859 5.5H86.6799V19H83.3859L83.2374 17.326C82.8594 17.938 82.3689 18.4285 81.7659 18.7975C81.1629 19.1665 80.4474 19.351 79.6194 19.351C78.6204 19.351 77.6844 19.1665 76.8114 18.7975C75.9384 18.4195 75.1689 17.8975 74.5029 17.2315C73.8459 16.5655 73.3284 15.796 72.9504 14.923C72.5814 14.041 72.3969 13.1005 72.3969 12.1015C72.3969 10.8145 72.7074 9.6445 73.3284 8.5915C73.9494 7.5385 74.7819 6.697 75.8259 6.067C76.8789 5.437 78.0489 5.122 79.3359 5.122C80.2359 5.122 81.0369 5.32 81.7389 5.716C82.4409 6.112 83.0394 6.616 83.5344 7.228L83.3859 5.5ZM79.5384 16.1785C80.2404 16.1785 80.8614 16.003 81.4014 15.652C81.9414 15.301 82.3644 14.8285 82.6704 14.2345C82.9764 13.6405 83.1294 12.979 83.1294 12.25C83.1294 11.521 82.9719 10.8595 82.6569 10.2655C82.3509 9.6715 81.9279 9.199 81.3879 8.848C80.8479 8.488 80.2314 8.308 79.5384 8.308C78.8364 8.308 78.2019 8.488 77.6349 8.848C77.0679 9.199 76.6134 9.6715 76.2714 10.2655C75.9384 10.8595 75.7719 11.521 75.7719 12.25C75.7719 12.979 75.9429 13.6405 76.2849 14.2345C76.6269 14.8285 77.0814 15.301 77.6484 15.652C78.2244 16.003 78.8544 16.1785 79.5384 16.1785ZM89.3835 19L89.37 5.5H92.664L92.6775 6.7015C93.1365 6.2155 93.6855 5.833 94.3245 5.554C94.9635 5.266 95.652 5.122 96.39 5.122C96.885 5.122 97.38 5.194 97.875 5.338L96.579 8.659C96.237 8.524 95.895 8.4565 95.553 8.4565C94.752 8.4565 94.0725 8.74 93.5145 9.307C92.9565 9.865 92.6775 10.54 92.6775 11.332V19H89.3835ZM108.598 5.5H112.094L104.71 25.75H101.213L103.657 19L98.7968 5.5H102.401L105.304 14.491L108.598 5.5ZM123.622 5.5H126.916V19H123.622L123.474 17.326C123.096 17.938 122.605 18.4285 122.002 18.7975C121.399 19.1665 120.684 19.351 119.856 19.351C118.857 19.351 117.921 19.1665 117.048 18.7975C116.175 18.4195 115.405 17.8975 114.739 17.2315C114.082 16.5655 113.565 15.796 113.187 14.923C112.818 14.041 112.633 13.1005 112.633 12.1015C112.633 10.8145 112.944 9.6445 113.565 8.5915C114.186 7.5385 115.018 6.697 116.062 6.067C117.115 5.437 118.285 5.122 119.572 5.122C120.472 5.122 121.273 5.32 121.975 5.716C122.677 6.112 123.276 6.616 123.771 7.228L123.622 5.5ZM119.775 16.1785C120.477 16.1785 121.098 16.003 121.638 15.652C122.178 15.301 122.601 14.8285 122.907 14.2345C123.213 13.6405 123.366 12.979 123.366 12.25C123.366 11.521 123.208 10.8595 122.893 10.2655C122.587 9.6715 122.164 9.199 121.624 8.848C121.084 8.488 120.468 8.308 119.775 8.308C119.073 8.308 118.438 8.488 117.871 8.848C117.304 9.199 116.85 9.6715 116.508 10.2655C116.175 10.8595 116.008 11.521 116.008 12.25C116.008 12.979 116.179 13.6405 116.521 14.2345C116.863 14.8285 117.318 15.301 117.885 15.652C118.461 16.003 119.091 16.1785 119.775 16.1785Z" fill="#351228"/>
        <path d="M139.649 19.234C138.977 19.234 138.326 19.129 137.696 18.919C137.072 18.709 136.526 18.409 136.058 18.019C135.59 17.629 135.26 17.164 135.068 16.624L136.247 16.183C136.379 16.555 136.619 16.876 136.967 17.146C137.321 17.41 137.732 17.614 138.2 17.758C138.674 17.902 139.157 17.974 139.649 17.974C140.225 17.974 140.762 17.878 141.26 17.686C141.758 17.494 142.16 17.227 142.466 16.885C142.772 16.537 142.925 16.129 142.925 15.661C142.925 15.187 142.766 14.797 142.448 14.491C142.13 14.185 141.719 13.945 141.215 13.771C140.717 13.591 140.195 13.453 139.649 13.357C138.791 13.207 138.02 13.003 137.336 12.745C136.658 12.487 136.121 12.124 135.725 11.656C135.329 11.182 135.131 10.558 135.131 9.784C135.131 9.058 135.341 8.428 135.761 7.894C136.181 7.36 136.733 6.946 137.417 6.652C138.107 6.358 138.851 6.211 139.649 6.211C140.303 6.211 140.942 6.313 141.566 6.517C142.19 6.721 142.739 7.018 143.213 7.408C143.693 7.798 144.038 8.275 144.248 8.839L143.051 9.271C142.919 8.893 142.676 8.572 142.322 8.308C141.974 8.038 141.566 7.834 141.098 7.696C140.63 7.552 140.147 7.48 139.649 7.48C139.079 7.474 138.545 7.57 138.047 7.768C137.555 7.96 137.156 8.23 136.85 8.578C136.544 8.92 136.391 9.322 136.391 9.784C136.391 10.324 136.532 10.741 136.814 11.035C137.102 11.323 137.492 11.539 137.984 11.683C138.476 11.827 139.031 11.956 139.649 12.07C140.453 12.208 141.2 12.424 141.89 12.718C142.58 13.006 143.135 13.393 143.555 13.879C143.975 14.359 144.185 14.953 144.185 15.661C144.185 16.381 143.975 17.011 143.555 17.551C143.135 18.085 142.58 18.499 141.89 18.793C141.206 19.087 140.459 19.234 139.649 19.234ZM150.745 11.26H148.594L148.585 19H147.325L147.334 11.26H145.705V10H147.334L147.325 7.174H148.585L148.594 10H150.745V11.26ZM159.503 10H160.763V19H159.503L159.458 17.326C159.164 17.896 158.753 18.358 158.225 18.712C157.697 19.06 157.067 19.234 156.335 19.234C155.675 19.234 155.057 19.111 154.481 18.865C153.905 18.613 153.398 18.268 152.96 17.83C152.522 17.392 152.18 16.885 151.934 16.309C151.688 15.733 151.565 15.115 151.565 14.455C151.565 13.585 151.775 12.796 152.195 12.088C152.621 11.374 153.188 10.807 153.896 10.387C154.604 9.961 155.39 9.748 156.254 9.748C157.004 9.748 157.658 9.928 158.216 10.288C158.774 10.642 159.218 11.107 159.548 11.683L159.503 10ZM156.308 18.01C156.95 18.01 157.502 17.854 157.964 17.542C158.426 17.224 158.78 16.798 159.026 16.264C159.278 15.73 159.404 15.142 159.404 14.5C159.404 13.84 159.278 13.246 159.026 12.718C158.774 12.184 158.417 11.761 157.955 11.449C157.493 11.137 156.944 10.981 156.308 10.981C155.672 10.981 155.09 11.14 154.562 11.458C154.04 11.77 153.623 12.193 153.311 12.727C153.005 13.261 152.852 13.852 152.852 14.5C152.852 15.154 153.011 15.748 153.329 16.282C153.647 16.81 154.067 17.23 154.589 17.542C155.117 17.854 155.69 18.01 156.308 18.01ZM162.564 19V10H163.824V11.242C164.142 10.786 164.556 10.423 165.066 10.153C165.576 9.883 166.131 9.748 166.731 9.748C167.079 9.748 167.415 9.793 167.739 9.883L167.226 11.134C166.974 11.056 166.728 11.017 166.488 11.017C166.002 11.017 165.555 11.137 165.147 11.377C164.745 11.617 164.424 11.938 164.184 12.34C163.944 12.742 163.824 13.189 163.824 13.681V19H162.564ZM173.597 11.26H171.446L171.437 19H170.177L170.186 11.26H168.557V10H170.186L170.177 7.174H171.437L171.446 10H173.597V11.26ZM178.917 19.234C178.089 19.234 177.333 19.021 176.649 18.595C175.971 18.169 175.428 17.599 175.02 16.885C174.618 16.165 174.417 15.37 174.417 14.5C174.417 13.624 174.618 12.826 175.02 12.106C175.428 11.386 175.971 10.813 176.649 10.387C177.333 9.961 178.089 9.748 178.917 9.748C179.811 9.748 180.6 9.979 181.284 10.441C181.974 10.897 182.508 11.521 182.886 12.313C183.264 13.099 183.429 13.987 183.381 14.977H175.749C175.821 15.547 176.001 16.057 176.289 16.507C176.583 16.957 176.955 17.314 177.405 17.578C177.861 17.836 178.365 17.968 178.917 17.974C179.517 17.974 180.057 17.818 180.537 17.506C181.023 17.194 181.413 16.765 181.707 16.219L182.985 16.516C182.625 17.314 182.082 17.968 181.356 18.478C180.63 18.982 179.817 19.234 178.917 19.234ZM175.713 13.96H182.112C182.07 13.402 181.899 12.892 181.599 12.43C181.305 11.962 180.924 11.59 180.456 11.314C179.988 11.032 179.475 10.891 178.917 10.891C178.359 10.891 177.849 11.029 177.387 11.305C176.925 11.575 176.547 11.944 176.253 12.412C175.959 12.874 175.779 13.39 175.713 13.96ZM184.924 19V10H186.184V11.242C186.502 10.786 186.916 10.423 187.426 10.153C187.936 9.883 188.491 9.748 189.091 9.748C189.439 9.748 189.775 9.793 190.099 9.883L189.586 11.134C189.334 11.056 189.088 11.017 188.848 11.017C188.362 11.017 187.915 11.137 187.507 11.377C187.105 11.617 186.784 11.938 186.544 12.34C186.304 12.742 186.184 13.189 186.184 13.681V19H184.924ZM203.773 19H202.144L198.013 13.339L196.942 14.626V19H195.682V6.4H196.942V12.664L202.189 6.4H203.836L198.841 12.349L203.773 19ZM205.279 10H206.539V19H205.279V10ZM205.918 8.425C205.714 8.425 205.54 8.359 205.396 8.227C205.258 8.089 205.189 7.918 205.189 7.714C205.189 7.51 205.258 7.342 205.396 7.21C205.54 7.072 205.714 7.003 205.918 7.003C206.116 7.003 206.284 7.072 206.422 7.21C206.566 7.342 206.638 7.51 206.638 7.714C206.638 7.918 206.569 8.089 206.431 8.227C206.293 8.359 206.122 8.425 205.918 8.425ZM213.306 11.26H211.155L211.146 19H209.886L209.895 11.26H208.266V10H209.895L209.886 7.174H211.146L211.155 10H213.306V11.26Z" fill="#510A32"/>
    </g>
    <defs>
        <clipPath id="clip0_649_9">
            <rect width="219" height="24" fill="white"/>
        </clipPath>
        <clipPath id="clip1_649_9">
            <rect width="24" height="24" fill="white"/>
        </clipPath>
    </defs>
</svg>
