<svg width="860" height="320" viewBox="0 0 860 320" fill="none" xmlns="http://www.w3.org/2000/svg">
<rect x="0.5" y="0.5" width="859" height="319" rx="5.5" fill="black" stroke="#998E8F"/>
<line x1="430" y1="230" x2="430" y2="154" stroke="#0D9373" stroke-opacity="0.5" stroke-width="2"/>
<line x1="431.003" y1="155" x2="488.759" y2="155.171" stroke="#0D9373" stroke-opacity="0.5" stroke-width="2"/>
<line x1="326.169" y1="229.219" x2="428.998" y2="229.004" stroke="#0D9373" stroke-opacity="0.5" stroke-width="2"/>
<line x1="329" y1="233" x2="517" y2="233" stroke="#0D9373" stroke-width="2"/>
<g clip-path="url(#clip0_669_2)">
<mask id="mask0_669_2" style="mask-type:alpha" maskUnits="userSpaceOnUse" x="304" y="221" width="27" height="18">
<path d="M304.393 221.149H330.607V238.308C330.607 238.383 330.546 238.443 330.471 238.443H304.529C304.454 238.443 304.393 238.383 304.393 238.308V221.149Z" fill="#C4C4C4"/>
</mask>
<g mask="url(#mask0_669_2)">
<g filter="url(#filter0_dii_669_2)">
<path d="M330.621 237.165H304.388V238.442H330.621V237.165Z" fill="#EFD1C6"/>
</g>
<g filter="url(#filter1_di_669_2)">
<path d="M330.621 221.201H304.388V237.165H330.621V221.201Z" fill="#EFD1C6"/>
</g>
</g>
<path d="M298.046 216.815H301.274V216.895C301.274 216.925 301.249 216.95 301.219 216.95H298.101C298.071 216.95 298.046 216.925 298.046 216.895V216.815Z" fill="#D6D6D6"/>
<path d="M320.235 216.815H323.497V216.895C323.497 216.925 323.473 216.95 323.442 216.95H320.29C320.26 216.95 320.235 216.925 320.235 216.895V216.815Z" fill="#D6D6D6"/>
<g filter="url(#filter2_i_669_2)">
<path d="M304.774 238.443H308.002V238.523C308.002 238.553 307.978 238.578 307.947 238.578H304.829C304.799 238.578 304.774 238.553 304.774 238.523V238.443Z" fill="white"/>
</g>
<g filter="url(#filter3_i_669_2)">
<path d="M326.964 238.443H330.226V238.523C330.226 238.553 330.201 238.578 330.171 238.578H327.019C326.988 238.578 326.964 238.553 326.964 238.523V238.443Z" fill="white"/>
</g>
<g filter="url(#filter4_i_669_2)">
<path d="M369.252 161.611H265.748C265.353 161.611 265.034 161.927 265.034 162.317V220.462C265.034 220.851 265.353 221.167 265.748 221.167H369.252C369.646 221.167 369.966 220.851 369.966 220.462V162.317C369.966 161.927 369.646 161.611 369.252 161.611Z" fill="#EFD1C6"/>
</g>
<path d="M368.654 162.854H266.346C266.316 162.854 266.291 162.878 266.291 162.908V219.87C266.291 219.9 266.316 219.924 266.346 219.924H368.654C368.684 219.924 368.709 219.9 368.709 219.87V162.908C368.709 162.878 368.684 162.854 368.654 162.854Z" fill="#500A31"/>
</g>
<path d="M16.3549 15L17.7099 8H18.5499L20.3449 12.715L22.1299 8H22.9699L24.3299 15H23.2699L22.3649 10.315L20.6899 14.735H19.9899L18.3199 10.315L17.4149 15H16.3549ZM25.2174 13.125V10H26.2574V12.87C26.2574 13.0933 26.3107 13.2967 26.4174 13.48C26.5274 13.6633 26.674 13.81 26.8574 13.92C27.0407 14.0267 27.244 14.08 27.4674 14.08C27.6907 14.08 27.8924 14.0267 28.0724 13.92C28.2557 13.81 28.4007 13.6633 28.5074 13.48C28.6174 13.2967 28.6724 13.0933 28.6724 12.87V10H29.7124L29.7174 15H28.6774L28.6724 14.46C28.5024 14.6667 28.2907 14.83 28.0374 14.95C27.784 15.07 27.5124 15.13 27.2224 15.13C26.8524 15.13 26.5157 15.04 26.2124 14.86C25.909 14.68 25.6674 14.4383 25.4874 14.135C25.3074 13.8317 25.2174 13.495 25.2174 13.125ZM30.7201 15V10H31.7601V10.53C31.9335 10.3233 32.1451 10.16 32.3951 10.04C32.6485 9.92 32.9218 9.86 33.2151 9.86C33.5718 9.86 33.9001 9.94667 34.2001 10.12C34.5001 10.29 34.7385 10.5167 34.9151 10.8C35.0885 10.5167 35.3235 10.29 35.6201 10.12C35.9168 9.94667 36.2451 9.86 36.6051 9.86C36.9718 9.86 37.3068 9.95 37.6101 10.13C37.9135 10.31 38.1551 10.5517 38.3351 10.855C38.5151 11.1583 38.6051 11.4933 38.6051 11.86V15H37.5651V12.13C37.5651 11.91 37.5118 11.7083 37.4051 11.525C37.2985 11.3383 37.1551 11.19 36.9751 11.08C36.7951 10.9667 36.5951 10.91 36.3751 10.91C36.0451 10.91 35.7635 11.0267 35.5301 11.26C35.3001 11.4933 35.1851 11.7833 35.1851 12.13V15H34.1451V12.13C34.1451 11.7833 34.0285 11.4933 33.7951 11.26C33.5618 11.0267 33.2801 10.91 32.9501 10.91C32.7335 10.91 32.5335 10.9667 32.3501 11.08C32.1701 11.19 32.0268 11.3383 31.9201 11.525C31.8135 11.7083 31.7601 11.91 31.7601 12.13V15H30.7201ZM42.2459 9.86C42.7326 9.86 43.1742 9.97833 43.5709 10.215C43.9709 10.4517 44.2892 10.77 44.5259 11.17C44.7626 11.5667 44.8809 12.0083 44.8809 12.495C44.8809 12.9783 44.7626 13.42 44.5259 13.82C44.2892 14.22 43.9709 14.5383 43.5709 14.775C43.1742 15.0117 42.7326 15.13 42.2459 15.13C41.8959 15.13 41.5892 15.05 41.3259 14.89C41.0659 14.73 40.8526 14.5217 40.6859 14.265V15H39.6459V7.5H40.6859V10.725C40.8526 10.4683 41.0659 10.26 41.3259 10.1C41.5892 9.94 41.8959 9.86 42.2459 9.86ZM42.2359 14.12C42.5259 14.12 42.7909 14.0467 43.0309 13.9C43.2709 13.7533 43.4609 13.5567 43.6009 13.31C43.7442 13.0633 43.8159 12.7917 43.8159 12.495C43.8159 12.1917 43.7442 11.9167 43.6009 11.67C43.4576 11.4233 43.2659 11.2283 43.0259 11.085C42.7859 10.9383 42.5226 10.865 42.2359 10.865C41.9426 10.865 41.6859 10.9383 41.4659 11.085C41.2492 11.2317 41.0792 11.4283 40.9559 11.675C40.8326 11.9217 40.7709 12.195 40.7709 12.495C40.7709 12.795 40.8326 13.0683 40.9559 13.315C41.0826 13.5617 41.2542 13.7583 41.4709 13.905C41.6909 14.0483 41.9459 14.12 42.2359 14.12ZM49.5711 10H50.6111V15H49.5661L49.5261 14.275C49.3794 14.5317 49.1811 14.7383 48.9311 14.895C48.6844 15.0517 48.3894 15.13 48.0461 15.13C47.6794 15.13 47.3344 15.0617 47.0111 14.925C46.6877 14.785 46.4044 14.5933 46.1611 14.35C45.9177 14.1033 45.7261 13.8183 45.5861 13.495C45.4494 13.1717 45.3811 12.825 45.3811 12.455C45.3811 11.9783 45.4961 11.5433 45.7261 11.15C45.9594 10.7567 46.2711 10.4433 46.6611 10.21C47.0511 9.97667 47.4844 9.86 47.9611 9.86C48.3244 9.86 48.6444 9.94333 48.9211 10.11C49.2011 10.2733 49.4327 10.4833 49.6161 10.74L49.5711 10ZM48.0211 14.125C48.3144 14.125 48.5711 14.0533 48.7911 13.91C49.0111 13.7633 49.1811 13.5667 49.3011 13.32C49.4244 13.0733 49.4861 12.8 49.4861 12.5C49.4861 12.1967 49.4244 11.9217 49.3011 11.675C49.1777 11.4283 49.0061 11.2333 48.7861 11.09C48.5661 10.9433 48.3111 10.87 48.0211 10.87C47.7277 10.87 47.4627 10.9433 47.2261 11.09C46.9894 11.2367 46.7994 11.4333 46.6561 11.68C46.5161 11.9267 46.4461 12.2 46.4461 12.5C46.4461 12.8033 46.5177 13.0783 46.6611 13.325C46.8077 13.5717 46.9994 13.7667 47.2361 13.91C47.4761 14.0533 47.7377 14.125 48.0211 14.125ZM51.6088 10H52.6488V15H51.6088V10ZM52.1338 9.275C51.9771 9.275 51.8455 9.22333 51.7388 9.12C51.6321 9.01667 51.5788 8.88667 51.5788 8.73C51.5788 8.57667 51.6321 8.44833 51.7388 8.345C51.8455 8.23833 51.9771 8.185 52.1338 8.185C52.2871 8.185 52.4171 8.23833 52.5238 8.345C52.6305 8.44833 52.6838 8.57667 52.6838 8.73C52.6838 8.88667 52.6305 9.01667 52.5238 9.12C52.4205 9.22333 52.2905 9.275 52.1338 9.275Z" fill="white"/>
<line x1="551" y1="181.577" x2="551" y2="229.577" stroke="#0D9373" stroke-width="2"/>
<rect x="-2.5" y="2.5" width="101.244" height="147.927" rx="5.5" transform="matrix(-1 0 0 1 590 29)" fill="#D9D9D9" stroke="#998E8F" stroke-width="5"/>
<path d="M523.036 96.06L518.866 100.44H523.036V102H516.631V100.44L520.801 96.06H516.631V94.5H523.036V96.06ZM527.702 102.195C527.012 102.195 526.382 102.017 525.812 101.662C525.247 101.307 524.794 100.832 524.454 100.237C524.119 99.6375 523.952 98.975 523.952 98.25C523.952 97.52 524.119 96.855 524.454 96.255C524.794 95.655 525.247 95.1775 525.812 94.8225C526.382 94.4675 527.012 94.29 527.702 94.29C528.277 94.29 528.804 94.41 529.284 94.65C529.764 94.885 530.174 95.2125 530.514 95.6325C530.854 96.0475 531.104 96.5275 531.264 97.0725C531.424 97.6125 531.472 98.1875 531.407 98.7975H525.624C525.719 99.3175 525.952 99.7525 526.322 100.102C526.697 100.452 527.157 100.63 527.702 100.635C528.082 100.635 528.427 100.54 528.737 100.35C529.052 100.16 529.309 99.8975 529.509 99.5625L531.092 99.93C530.792 100.595 530.339 101.14 529.734 101.565C529.129 101.985 528.452 102.195 527.702 102.195ZM525.572 97.605H529.832C529.782 97.25 529.654 96.925 529.449 96.63C529.249 96.335 528.997 96.1025 528.692 95.9325C528.392 95.7575 528.062 95.67 527.702 95.67C527.162 95.67 526.694 95.8575 526.299 96.2325C525.904 96.6025 525.662 97.06 525.572 97.605ZM536.565 96.06H534.99L534.982 102H533.422L533.43 96.06H532.237V94.5H533.43L533.422 92.145H534.982L534.99 94.5H536.565V96.06ZM543.567 94.5H545.127V102H543.559L543.499 100.912C543.279 101.297 542.982 101.607 542.607 101.842C542.237 102.077 541.794 102.195 541.279 102.195C540.729 102.195 540.212 102.093 539.727 101.887C539.242 101.677 538.817 101.39 538.452 101.025C538.087 100.655 537.799 100.227 537.589 99.7425C537.384 99.2575 537.282 98.7375 537.282 98.1825C537.282 97.4675 537.454 96.815 537.799 96.225C538.149 95.635 538.617 95.165 539.202 94.815C539.787 94.465 540.437 94.29 541.152 94.29C541.697 94.29 542.177 94.415 542.592 94.665C543.012 94.91 543.359 95.225 543.634 95.61L543.567 94.5ZM541.242 100.687C541.682 100.687 542.067 100.58 542.397 100.365C542.727 100.145 542.982 99.85 543.162 99.48C543.347 99.11 543.439 98.7 543.439 98.25C543.439 97.795 543.347 97.3825 543.162 97.0125C542.977 96.6425 542.719 96.35 542.389 96.135C542.059 95.915 541.677 95.805 541.242 95.805C540.802 95.805 540.404 95.915 540.049 96.135C539.694 96.355 539.409 96.65 539.194 97.02C538.984 97.39 538.879 97.8 538.879 98.25C538.879 98.705 538.987 99.1175 539.202 99.4875C539.422 99.8575 539.709 100.15 540.064 100.365C540.424 100.58 540.817 100.687 541.242 100.687ZM546.623 102V94.5H548.183V95.295C548.443 94.985 548.763 94.74 549.143 94.56C549.523 94.38 549.933 94.29 550.373 94.29C550.653 94.29 550.931 94.3275 551.206 94.4025L550.583 95.9775C550.388 95.9025 550.193 95.865 549.998 95.865C549.668 95.865 549.366 95.9475 549.091 96.1125C548.816 96.2725 548.596 96.49 548.431 96.765C548.266 97.04 548.183 97.345 548.183 97.68V102H546.623ZM557.225 94.5H558.89L554.78 105.75H553.122L554.48 102L551.787 94.5H553.49L555.26 99.8625L557.225 94.5ZM565.569 94.5H567.129V102H565.561L565.501 100.912C565.281 101.297 564.984 101.607 564.609 101.842C564.239 102.077 563.796 102.195 563.281 102.195C562.731 102.195 562.214 102.093 561.729 101.887C561.244 101.677 560.819 101.39 560.454 101.025C560.089 100.655 559.801 100.227 559.591 99.7425C559.386 99.2575 559.284 98.7375 559.284 98.1825C559.284 97.4675 559.456 96.815 559.801 96.225C560.151 95.635 560.619 95.165 561.204 94.815C561.789 94.465 562.439 94.29 563.154 94.29C563.699 94.29 564.179 94.415 564.594 94.665C565.014 94.91 565.361 95.225 565.636 95.61L565.569 94.5ZM563.244 100.687C563.684 100.687 564.069 100.58 564.399 100.365C564.729 100.145 564.984 99.85 565.164 99.48C565.349 99.11 565.441 98.7 565.441 98.25C565.441 97.795 565.349 97.3825 565.164 97.0125C564.979 96.6425 564.721 96.35 564.391 96.135C564.061 95.915 563.679 95.805 563.244 95.805C562.804 95.805 562.406 95.915 562.051 96.135C561.696 96.355 561.411 96.65 561.196 97.02C560.986 97.39 560.881 97.8 560.881 98.25C560.881 98.705 560.989 99.1175 561.204 99.4875C561.424 99.8575 561.711 100.15 562.066 100.365C562.426 100.58 562.819 100.687 563.244 100.687ZM524.008 120.143C523.408 120.108 522.848 119.947 522.328 119.662C521.808 119.377 521.443 119 521.233 118.53L522.56 117.96C522.66 118.165 522.863 118.357 523.168 118.537C523.473 118.712 523.805 118.8 524.165 118.8C524.51 118.8 524.82 118.722 525.095 118.567C525.375 118.412 525.515 118.185 525.515 117.885C525.515 117.665 525.44 117.495 525.29 117.375C525.145 117.255 524.963 117.162 524.743 117.097C524.523 117.027 524.303 116.962 524.083 116.902C523.588 116.792 523.138 116.642 522.733 116.452C522.328 116.257 522.005 116.01 521.765 115.71C521.525 115.405 521.405 115.032 521.405 114.592C521.405 114.112 521.535 113.697 521.795 113.347C522.055 112.992 522.395 112.72 522.815 112.53C523.235 112.34 523.688 112.245 524.173 112.245C524.773 112.245 525.323 112.372 525.823 112.627C526.323 112.882 526.705 113.232 526.97 113.677L525.733 114.412C525.618 114.187 525.425 114 525.155 113.85C524.885 113.695 524.6 113.61 524.3 113.595C523.91 113.58 523.573 113.652 523.288 113.812C523.008 113.967 522.868 114.215 522.868 114.555C522.868 114.775 522.945 114.94 523.1 115.05C523.255 115.16 523.45 115.247 523.685 115.312C523.925 115.372 524.17 115.442 524.42 115.522C524.865 115.667 525.283 115.84 525.673 116.04C526.063 116.24 526.378 116.487 526.618 116.782C526.858 117.077 526.973 117.437 526.963 117.862C526.963 118.332 526.82 118.745 526.535 119.1C526.255 119.45 525.89 119.72 525.44 119.91C524.99 120.095 524.513 120.173 524.008 120.143ZM531.444 120.195C530.754 120.195 530.124 120.017 529.554 119.662C528.989 119.307 528.537 118.832 528.197 118.237C527.862 117.637 527.694 116.975 527.694 116.25C527.694 115.52 527.862 114.855 528.197 114.255C528.537 113.655 528.989 113.177 529.554 112.822C530.124 112.467 530.754 112.29 531.444 112.29C532.019 112.29 532.547 112.41 533.027 112.65C533.507 112.885 533.917 113.212 534.257 113.632C534.597 114.047 534.847 114.527 535.007 115.072C535.167 115.612 535.214 116.187 535.149 116.797H529.367C529.462 117.317 529.694 117.752 530.064 118.102C530.439 118.452 530.899 118.63 531.444 118.635C531.824 118.635 532.169 118.54 532.479 118.35C532.794 118.16 533.052 117.897 533.252 117.562L534.834 117.93C534.534 118.595 534.082 119.14 533.477 119.565C532.872 119.985 532.194 120.195 531.444 120.195ZM529.314 115.605H533.574C533.524 115.25 533.397 114.925 533.192 114.63C532.992 114.335 532.739 114.102 532.434 113.932C532.134 113.757 531.804 113.67 531.444 113.67C530.904 113.67 530.437 113.857 530.042 114.232C529.647 114.602 529.404 115.06 529.314 115.605ZM536.391 120V112.5H537.951V113.295C538.211 112.985 538.531 112.74 538.911 112.56C539.291 112.38 539.701 112.29 540.141 112.29C540.421 112.29 540.699 112.327 540.974 112.402L540.351 113.977C540.156 113.902 539.961 113.865 539.766 113.865C539.436 113.865 539.134 113.947 538.859 114.112C538.584 114.272 538.364 114.49 538.199 114.765C538.034 115.04 537.951 115.345 537.951 115.68V120H536.391ZM546.321 120H544.319L541.581 112.485H543.246L545.316 118.192L547.394 112.485H549.051L546.321 120ZM553.212 120.195C552.522 120.195 551.892 120.017 551.322 119.662C550.757 119.307 550.304 118.832 549.964 118.237C549.629 117.637 549.462 116.975 549.462 116.25C549.462 115.52 549.629 114.855 549.964 114.255C550.304 113.655 550.757 113.177 551.322 112.822C551.892 112.467 552.522 112.29 553.212 112.29C553.787 112.29 554.314 112.41 554.794 112.65C555.274 112.885 555.684 113.212 556.024 113.632C556.364 114.047 556.614 114.527 556.774 115.072C556.934 115.612 556.982 116.187 556.917 116.797H551.134C551.229 117.317 551.462 117.752 551.832 118.102C552.207 118.452 552.667 118.63 553.212 118.635C553.592 118.635 553.937 118.54 554.247 118.35C554.562 118.16 554.819 117.897 555.019 117.562L556.602 117.93C556.302 118.595 555.849 119.14 555.244 119.565C554.639 119.985 553.962 120.195 553.212 120.195ZM551.082 115.605H555.342C555.292 115.25 555.164 114.925 554.959 114.63C554.759 114.335 554.507 114.102 554.202 113.932C553.902 113.757 553.572 113.67 553.212 113.67C552.672 113.67 552.204 113.857 551.809 114.232C551.414 114.602 551.172 115.06 551.082 115.605ZM558.159 120V112.5H559.719V113.295C559.979 112.985 560.299 112.74 560.679 112.56C561.059 112.38 561.469 112.29 561.909 112.29C562.189 112.29 562.466 112.327 562.741 112.402L562.119 113.977C561.924 113.902 561.729 113.865 561.534 113.865C561.204 113.865 560.901 113.947 560.626 114.112C560.351 114.272 560.131 114.49 559.966 114.765C559.801 115.04 559.719 115.345 559.719 115.68V120H558.159Z" fill="black"/>
<circle cx="579.707" cy="44.2926" r="2.41463" fill="#0D9373"/>
<path d="M571.311 244.549H519.665C517.628 244.549 515.976 242.873 515.976 240.806V233.32C515.976 231.253 517.628 229.577 519.665 229.577H571.311C573.348 229.577 575 231.253 575 233.32V240.806C575 242.873 573.348 244.549 571.311 244.549ZM565.777 234.256C564.249 234.256 563.011 235.513 563.011 237.063C563.011 238.613 564.249 239.87 565.777 239.87C567.305 239.87 568.544 238.613 568.544 237.063C568.544 235.513 567.305 234.256 565.777 234.256ZM558.399 234.256C556.871 234.256 555.633 235.513 555.633 237.063C555.633 238.613 556.871 239.87 558.399 239.87C559.927 239.87 561.166 238.613 561.166 237.063C561.166 235.513 559.927 234.256 558.399 234.256ZM571.311 263.264H519.665C517.628 263.264 515.976 261.588 515.976 259.521V252.035C515.976 249.968 517.628 248.292 519.665 248.292H571.311C573.348 248.292 575 249.968 575 252.035V259.521C575 261.588 573.348 263.264 571.311 263.264ZM565.777 252.971C564.249 252.971 563.011 254.227 563.011 255.778C563.011 257.328 564.249 258.585 565.777 258.585C567.305 258.585 568.544 257.328 568.544 255.778C568.544 254.227 567.305 252.971 565.777 252.971ZM558.399 252.971C556.871 252.971 555.633 254.227 555.633 255.778C555.633 257.328 556.871 258.585 558.399 258.585C559.927 258.585 561.166 257.328 561.166 255.778C561.166 254.227 559.927 252.971 558.399 252.971ZM571.311 281.978H519.665C517.628 281.978 515.976 280.303 515.976 278.236V270.75C515.976 268.682 517.628 267.007 519.665 267.007H571.311C573.348 267.007 575 268.682 575 270.75V278.236C575 280.303 573.348 281.978 571.311 281.978ZM565.777 271.685C564.249 271.685 563.011 272.942 563.011 274.493C563.011 276.043 564.249 277.3 565.777 277.3C567.305 277.3 568.544 276.043 568.544 274.493C568.544 272.942 567.305 271.685 565.777 271.685ZM558.399 271.685C556.871 271.685 555.633 272.942 555.633 274.493C555.633 276.043 556.871 277.3 558.399 277.3C559.927 277.3 561.166 276.043 561.166 274.493C561.166 272.942 559.927 271.685 558.399 271.685Z" fill="#D9D9D9"/>
<path d="M531.629 266.992V269.449C531.629 269.946 531.324 270.436 530.735 270.898C530.147 271.358 529.29 271.777 528.222 272.131C526.087 272.839 523.132 273.28 519.865 273.28C516.597 273.28 513.642 272.839 511.507 272.131C510.44 271.777 509.582 271.358 508.994 270.898C508.405 270.436 508.1 269.946 508.1 269.449V266.992C508.1 266.495 508.405 266.004 508.994 265.543C509.582 265.083 510.44 264.664 511.507 264.31C513.642 263.602 516.597 263.161 519.865 263.161C523.132 263.161 526.087 263.602 528.222 264.31C529.29 264.664 530.147 265.083 530.735 265.543C531.324 266.004 531.629 266.495 531.629 266.992ZM531.629 272.709V278.048C531.629 278.545 531.324 279.035 530.735 279.496C530.147 279.957 529.29 280.376 528.222 280.73C526.087 281.438 523.132 281.878 519.865 281.878C516.597 281.878 513.642 281.438 511.507 280.73C510.44 280.376 509.582 279.957 508.994 279.496C508.405 279.035 508.1 278.545 508.1 278.048V272.709C509.379 273.555 511.134 274.177 513.124 274.591C515.198 275.022 517.534 275.23 519.865 275.23C522.195 275.23 524.531 275.022 526.605 274.591C528.595 274.177 530.35 273.555 531.629 272.709ZM526.605 283.19C528.595 282.775 530.35 282.154 531.629 281.307V286.646C531.629 287.143 531.324 287.634 530.735 288.095C530.147 288.555 529.29 288.974 528.222 289.329C526.087 290.036 523.132 290.477 519.865 290.477C516.597 290.477 513.642 290.036 511.507 289.329C510.44 288.974 509.582 288.555 508.994 288.095C508.405 287.634 508.1 287.143 508.1 286.646V281.307C509.379 282.154 511.134 282.775 513.124 283.19C515.198 283.621 517.534 283.829 519.865 283.829C522.195 283.829 524.531 283.621 526.605 283.19Z" fill="#ECCBCA" stroke="black" stroke-width="0.2"/>
<path d="M473.625 227V222.8H474.3L476.229 225.872V222.8H476.853V227H476.178L474.249 223.928V227H473.625ZM478.847 227.078C478.571 227.078 478.319 227.007 478.091 226.865C477.865 226.723 477.684 226.533 477.548 226.295C477.414 226.055 477.347 225.79 477.347 225.5C477.347 225.208 477.414 224.942 477.548 224.702C477.684 224.462 477.865 224.271 478.091 224.129C478.319 223.987 478.571 223.916 478.847 223.916C479.077 223.916 479.288 223.964 479.48 224.06C479.672 224.154 479.836 224.285 479.972 224.453C480.108 224.619 480.208 224.811 480.272 225.029C480.336 225.245 480.355 225.475 480.329 225.719H478.016C478.054 225.927 478.147 226.101 478.295 226.241C478.445 226.381 478.629 226.452 478.847 226.454C478.999 226.454 479.137 226.416 479.261 226.34C479.387 226.264 479.49 226.159 479.57 226.025L480.203 226.172C480.083 226.438 479.902 226.656 479.66 226.826C479.418 226.994 479.147 227.078 478.847 227.078ZM477.995 225.242H479.699C479.679 225.1 479.628 224.97 479.546 224.852C479.466 224.734 479.365 224.641 479.243 224.573C479.123 224.503 478.991 224.468 478.847 224.468C478.631 224.468 478.444 224.543 478.286 224.693C478.128 224.841 478.031 225.024 477.995 225.242ZM482.392 224.624H481.762L481.759 227H481.135L481.138 224.624H480.661V224H481.138L481.135 223.058H481.759L481.762 224H482.392V224.624ZM484.375 227H483.754L482.749 224H483.361L484.069 226.106L484.771 224H485.401L486.103 226.106L486.808 224H487.42L486.418 227H485.791L485.083 224.879L484.375 227ZM489.089 227.078C488.813 227.078 488.561 227.007 488.333 226.865C488.107 226.723 487.926 226.533 487.79 226.295C487.656 226.055 487.589 225.79 487.589 225.5C487.589 225.208 487.656 224.942 487.79 224.702C487.926 224.462 488.107 224.271 488.333 224.129C488.561 223.987 488.813 223.916 489.089 223.916C489.365 223.916 489.616 223.987 489.842 224.129C490.07 224.271 490.251 224.462 490.385 224.702C490.521 224.942 490.589 225.208 490.589 225.5C490.589 225.79 490.521 226.055 490.385 226.295C490.251 226.533 490.07 226.723 489.842 226.865C489.616 227.007 489.365 227.078 489.089 227.078ZM489.089 226.454C489.255 226.454 489.404 226.41 489.536 226.322C489.668 226.234 489.772 226.118 489.848 225.974C489.926 225.828 489.965 225.67 489.965 225.5C489.965 225.326 489.925 225.166 489.845 225.02C489.767 224.874 489.662 224.758 489.53 224.672C489.398 224.584 489.251 224.54 489.089 224.54C488.925 224.54 488.776 224.584 488.642 224.672C488.51 224.76 488.405 224.877 488.327 225.023C488.251 225.169 488.213 225.328 488.213 225.5C488.213 225.678 488.253 225.839 488.333 225.983C488.413 226.127 488.519 226.242 488.651 226.328C488.785 226.412 488.931 226.454 489.089 226.454ZM491.074 227V224H491.698V224.318C491.802 224.194 491.93 224.096 492.082 224.024C492.234 223.952 492.398 223.916 492.574 223.916C492.686 223.916 492.797 223.931 492.907 223.961L492.658 224.591C492.58 224.561 492.502 224.546 492.424 224.546C492.292 224.546 492.171 224.579 492.061 224.645C491.951 224.709 491.863 224.796 491.797 224.906C491.731 225.016 491.698 225.138 491.698 225.272V227H491.074ZM495.819 227H495.099L494.361 225.728L493.878 226.304V227H493.254V222.5H493.878V225.332L494.994 224H495.81L494.787 225.221L495.819 227ZM500.146 224H500.77V227H500.143L500.119 226.565C500.031 226.719 499.912 226.843 499.762 226.937C499.614 227.031 499.437 227.078 499.231 227.078C499.011 227.078 498.804 227.037 498.61 226.955C498.416 226.871 498.246 226.756 498.1 226.61C497.954 226.462 497.839 226.291 497.755 226.097C497.673 225.903 497.632 225.695 497.632 225.473C497.632 225.187 497.701 224.926 497.839 224.69C497.979 224.454 498.166 224.266 498.4 224.126C498.634 223.986 498.894 223.916 499.18 223.916C499.398 223.916 499.59 223.966 499.756 224.066C499.924 224.164 500.063 224.29 500.173 224.444L500.146 224ZM499.216 226.475C499.392 226.475 499.546 226.432 499.678 226.346C499.81 226.258 499.912 226.14 499.984 225.992C500.058 225.844 500.095 225.68 500.095 225.5C500.095 225.318 500.058 225.153 499.984 225.005C499.91 224.857 499.807 224.74 499.675 224.654C499.543 224.566 499.39 224.522 499.216 224.522C499.04 224.522 498.881 224.566 498.739 224.654C498.597 224.742 498.483 224.86 498.397 225.008C498.313 225.156 498.271 225.32 498.271 225.5C498.271 225.682 498.314 225.847 498.4 225.995C498.488 226.143 498.603 226.26 498.745 226.346C498.889 226.432 499.046 226.475 499.216 226.475ZM502.953 224.624H502.323L502.32 227H501.696L501.699 224.624H501.222V224H501.699L501.696 223.058H502.32L502.323 224H502.953V224.624ZM505.074 224.624H504.444L504.441 227H503.817L503.82 224.624H503.343V224H503.82L503.817 223.058H504.441L504.444 224H505.074V224.624ZM507.875 224H508.499V227H507.872L507.848 226.565C507.76 226.719 507.641 226.843 507.491 226.937C507.343 227.031 507.166 227.078 506.96 227.078C506.74 227.078 506.533 227.037 506.339 226.955C506.145 226.871 505.975 226.756 505.829 226.61C505.683 226.462 505.568 226.291 505.484 226.097C505.402 225.903 505.361 225.695 505.361 225.473C505.361 225.187 505.43 224.926 505.568 224.69C505.708 224.454 505.895 224.266 506.129 224.126C506.363 223.986 506.623 223.916 506.909 223.916C507.127 223.916 507.319 223.966 507.485 224.066C507.653 224.164 507.792 224.29 507.902 224.444L507.875 224ZM506.945 226.475C507.121 226.475 507.275 226.432 507.407 226.346C507.539 226.258 507.641 226.14 507.713 225.992C507.787 225.844 507.824 225.68 507.824 225.5C507.824 225.318 507.787 225.153 507.713 225.005C507.639 224.857 507.536 224.74 507.404 224.654C507.272 224.566 507.119 224.522 506.945 224.522C506.769 224.522 506.61 224.566 506.468 224.654C506.326 224.742 506.212 224.86 506.126 225.008C506.042 225.156 506 225.32 506 225.5C506 225.682 506.043 225.847 506.129 225.995C506.217 226.143 506.332 226.26 506.474 226.346C506.618 226.432 506.775 226.475 506.945 226.475ZM510.998 226.148L511.556 226.451C511.42 226.641 511.248 226.793 511.04 226.907C510.832 227.021 510.605 227.078 510.359 227.078C510.083 227.078 509.831 227.007 509.603 226.865C509.377 226.723 509.196 226.533 509.06 226.295C508.926 226.055 508.859 225.79 508.859 225.5C508.859 225.208 508.926 224.942 509.06 224.702C509.196 224.462 509.377 224.271 509.603 224.129C509.831 223.987 510.083 223.916 510.359 223.916C510.605 223.916 510.832 223.973 511.04 224.087C511.248 224.201 511.42 224.354 511.556 224.546L510.998 224.849C510.916 224.749 510.818 224.673 510.704 224.621C510.592 224.567 510.477 224.54 510.359 224.54C510.193 224.54 510.044 224.585 509.912 224.675C509.78 224.763 509.675 224.88 509.597 225.026C509.521 225.17 509.483 225.328 509.483 225.5C509.483 225.672 509.522 225.83 509.6 225.974C509.678 226.118 509.783 226.234 509.915 226.322C510.049 226.41 510.197 226.454 510.359 226.454C510.483 226.454 510.601 226.426 510.713 226.37C510.825 226.314 510.92 226.24 510.998 226.148ZM514.727 225.116V227H514.103V225.272C514.103 225.138 514.07 225.016 514.004 224.906C513.94 224.796 513.853 224.709 513.743 224.645C513.633 224.579 513.511 224.546 513.377 224.546C513.245 224.546 513.124 224.579 513.014 224.645C512.904 224.709 512.816 224.796 512.75 224.906C512.684 225.016 512.651 225.138 512.651 225.272V227H512.027V222.5H512.651V224.318C512.755 224.194 512.883 224.096 513.035 224.024C513.187 223.952 513.351 223.916 513.527 223.916C513.749 223.916 513.95 223.97 514.13 224.078C514.312 224.186 514.457 224.331 514.565 224.513C514.673 224.695 514.727 224.896 514.727 225.116ZM516.587 227.078C516.311 227.078 516.059 227.007 515.831 226.865C515.605 226.723 515.424 226.533 515.288 226.295C515.154 226.055 515.087 225.79 515.087 225.5C515.087 225.208 515.154 224.942 515.288 224.702C515.424 224.462 515.605 224.271 515.831 224.129C516.059 223.987 516.311 223.916 516.587 223.916C516.817 223.916 517.028 223.964 517.22 224.06C517.412 224.154 517.576 224.285 517.712 224.453C517.848 224.619 517.948 224.811 518.012 225.029C518.076 225.245 518.095 225.475 518.069 225.719H515.756C515.794 225.927 515.887 226.101 516.035 226.241C516.185 226.381 516.369 226.452 516.587 226.454C516.739 226.454 516.877 226.416 517.001 226.34C517.127 226.264 517.23 226.159 517.31 226.025L517.943 226.172C517.823 226.438 517.642 226.656 517.4 226.826C517.158 226.994 516.887 227.078 516.587 227.078ZM515.735 225.242H517.439C517.419 225.1 517.368 224.97 517.286 224.852C517.206 224.734 517.105 224.641 516.983 224.573C516.863 224.503 516.731 224.468 516.587 224.468C516.371 224.468 516.184 224.543 516.026 224.693C515.868 224.841 515.771 225.024 515.735 225.242ZM520.897 222.5H521.521V227H520.897V226.559C520.799 226.715 520.671 226.841 520.513 226.937C520.355 227.031 520.17 227.078 519.958 227.078C519.74 227.078 519.536 227.037 519.346 226.955C519.156 226.873 518.988 226.76 518.842 226.616C518.698 226.47 518.585 226.302 518.503 226.112C518.421 225.922 518.38 225.718 518.38 225.5C518.38 225.282 518.421 225.078 518.503 224.888C518.585 224.696 518.698 224.528 518.842 224.384C518.988 224.238 519.156 224.124 519.346 224.042C519.536 223.96 519.74 223.919 519.958 223.919C520.17 223.919 520.355 223.967 520.513 224.063C520.671 224.157 520.799 224.281 520.897 224.435V222.5ZM519.964 226.475C520.14 226.475 520.294 226.432 520.426 226.346C520.558 226.258 520.66 226.14 520.732 225.992C520.806 225.844 520.843 225.68 520.843 225.5C520.843 225.318 520.806 225.153 520.732 225.005C520.658 224.857 520.555 224.74 520.423 224.654C520.291 224.566 520.138 224.522 519.964 224.522C519.79 224.522 519.631 224.566 519.487 224.654C519.345 224.742 519.231 224.86 519.145 225.008C519.061 225.156 519.019 225.32 519.019 225.5C519.019 225.682 519.062 225.847 519.148 225.995C519.236 226.143 519.351 226.26 519.493 226.346C519.637 226.432 519.794 226.475 519.964 226.475ZM524.581 227.057C524.341 227.043 524.117 226.979 523.909 226.865C523.701 226.751 523.555 226.6 523.471 226.412L524.002 226.184C524.042 226.266 524.123 226.343 524.245 226.415C524.367 226.485 524.5 226.52 524.644 226.52C524.782 226.52 524.906 226.489 525.016 226.427C525.128 226.365 525.184 226.274 525.184 226.154C525.184 226.066 525.154 225.998 525.094 225.95C525.036 225.902 524.963 225.865 524.875 225.839C524.787 225.811 524.699 225.785 524.611 225.761C524.413 225.717 524.233 225.657 524.071 225.581C523.909 225.503 523.78 225.404 523.684 225.284C523.588 225.162 523.54 225.013 523.54 224.837C523.54 224.645 523.592 224.479 523.696 224.339C523.8 224.197 523.936 224.088 524.104 224.012C524.272 223.936 524.453 223.898 524.647 223.898C524.887 223.898 525.107 223.949 525.307 224.051C525.507 224.153 525.66 224.293 525.766 224.471L525.271 224.765C525.225 224.675 525.148 224.6 525.04 224.54C524.932 224.478 524.818 224.444 524.698 224.438C524.542 224.432 524.407 224.461 524.293 224.525C524.181 224.587 524.125 224.686 524.125 224.822C524.125 224.91 524.156 224.976 524.218 225.02C524.28 225.064 524.358 225.099 524.452 225.125C524.548 225.149 524.646 225.177 524.746 225.209C524.924 225.267 525.091 225.336 525.247 225.416C525.403 225.496 525.529 225.595 525.625 225.713C525.721 225.831 525.767 225.975 525.763 226.145C525.763 226.333 525.706 226.498 525.592 226.64C525.48 226.78 525.334 226.888 525.154 226.964C524.974 227.038 524.783 227.069 524.581 227.057ZM527.861 224.624H527.231L527.228 227H526.604L526.607 224.624H526.13V224H526.607L526.604 223.058H527.228L527.231 224H527.861V224.624ZM529.648 227.078C529.372 227.078 529.12 227.007 528.892 226.865C528.666 226.723 528.485 226.533 528.349 226.295C528.215 226.055 528.148 225.79 528.148 225.5C528.148 225.208 528.215 224.942 528.349 224.702C528.485 224.462 528.666 224.271 528.892 224.129C529.12 223.987 529.372 223.916 529.648 223.916C529.924 223.916 530.175 223.987 530.401 224.129C530.629 224.271 530.81 224.462 530.944 224.702C531.08 224.942 531.148 225.208 531.148 225.5C531.148 225.79 531.08 226.055 530.944 226.295C530.81 226.533 530.629 226.723 530.401 226.865C530.175 227.007 529.924 227.078 529.648 227.078ZM529.648 226.454C529.814 226.454 529.963 226.41 530.095 226.322C530.227 226.234 530.331 226.118 530.407 225.974C530.485 225.828 530.524 225.67 530.524 225.5C530.524 225.326 530.484 225.166 530.404 225.02C530.326 224.874 530.221 224.758 530.089 224.672C529.957 224.584 529.81 224.54 529.648 224.54C529.484 224.54 529.335 224.584 529.201 224.672C529.069 224.76 528.964 224.877 528.886 225.023C528.81 225.169 528.772 225.328 528.772 225.5C528.772 225.678 528.812 225.839 528.892 225.983C528.972 226.127 529.078 226.242 529.21 226.328C529.344 226.412 529.49 226.454 529.648 226.454ZM531.632 227V224H532.256V224.318C532.36 224.194 532.488 224.096 532.64 224.024C532.792 223.952 532.956 223.916 533.132 223.916C533.244 223.916 533.355 223.931 533.465 223.961L533.216 224.591C533.138 224.561 533.06 224.546 532.982 224.546C532.85 224.546 532.729 224.579 532.619 224.645C532.509 224.709 532.421 224.796 532.355 224.906C532.289 225.016 532.256 225.138 532.256 225.272V227H531.632ZM536.006 224H536.63V227H536.003L535.979 226.565C535.891 226.719 535.772 226.843 535.622 226.937C535.474 227.031 535.297 227.078 535.091 227.078C534.871 227.078 534.664 227.037 534.47 226.955C534.276 226.871 534.106 226.756 533.96 226.61C533.814 226.462 533.699 226.291 533.615 226.097C533.533 225.903 533.492 225.695 533.492 225.473C533.492 225.187 533.561 224.926 533.699 224.69C533.839 224.454 534.026 224.266 534.26 224.126C534.494 223.986 534.754 223.916 535.04 223.916C535.258 223.916 535.45 223.966 535.616 224.066C535.784 224.164 535.923 224.29 536.033 224.444L536.006 224ZM535.076 226.475C535.252 226.475 535.406 226.432 535.538 226.346C535.67 226.258 535.772 226.14 535.844 225.992C535.918 225.844 535.955 225.68 535.955 225.5C535.955 225.318 535.918 225.153 535.844 225.005C535.77 224.857 535.667 224.74 535.535 224.654C535.403 224.566 535.25 224.522 535.076 224.522C534.9 224.522 534.741 224.566 534.599 224.654C534.457 224.742 534.343 224.86 534.257 225.008C534.173 225.156 534.131 225.32 534.131 225.5C534.131 225.682 534.174 225.847 534.26 225.995C534.348 226.143 534.463 226.26 534.605 226.346C534.749 226.432 534.906 226.475 535.076 226.475ZM539.453 224H540.077V227.078C540.077 227.354 540.002 227.599 539.852 227.813C539.704 228.027 539.509 228.195 539.267 228.317C539.025 228.439 538.765 228.5 538.487 228.5C538.277 228.5 538.075 228.455 537.881 228.365C537.689 228.277 537.519 228.157 537.371 228.005C537.223 227.853 537.113 227.681 537.041 227.489L537.614 227.231C537.672 227.417 537.784 227.57 537.95 227.69C538.118 227.812 538.297 227.873 538.487 227.873C538.651 227.873 538.806 227.839 538.952 227.771C539.1 227.703 539.22 227.609 539.312 227.489C539.406 227.371 539.453 227.234 539.453 227.078V226.571C539.355 226.721 539.228 226.843 539.072 226.937C538.918 227.031 538.74 227.078 538.538 227.078C538.254 227.078 537.994 227.007 537.758 226.865C537.524 226.723 537.337 226.533 537.197 226.295C537.059 226.055 536.99 225.79 536.99 225.5C536.99 225.21 537.059 224.946 537.197 224.708C537.337 224.468 537.524 224.277 537.758 224.135C537.994 223.991 538.254 223.919 538.538 223.919C538.74 223.919 538.918 223.966 539.072 224.06C539.228 224.154 539.355 224.277 539.453 224.429V224ZM538.547 226.475C538.717 226.475 538.867 226.431 538.997 226.343C539.129 226.253 539.231 226.134 539.303 225.986C539.375 225.838 539.411 225.676 539.411 225.5C539.411 225.322 539.374 225.159 539.3 225.011C539.228 224.863 539.127 224.745 538.997 224.657C538.867 224.567 538.717 224.522 538.547 224.522C538.377 224.522 538.222 224.566 538.082 224.654C537.944 224.742 537.834 224.86 537.752 225.008C537.67 225.156 537.629 225.32 537.629 225.5C537.629 225.68 537.67 225.844 537.752 225.992C537.836 226.14 537.947 226.258 538.085 226.346C538.225 226.432 538.379 226.475 538.547 226.475ZM542.064 227.078C541.788 227.078 541.536 227.007 541.308 226.865C541.082 226.723 540.901 226.533 540.765 226.295C540.631 226.055 540.564 225.79 540.564 225.5C540.564 225.208 540.631 224.942 540.765 224.702C540.901 224.462 541.082 224.271 541.308 224.129C541.536 223.987 541.788 223.916 542.064 223.916C542.294 223.916 542.505 223.964 542.697 224.06C542.889 224.154 543.053 224.285 543.189 224.453C543.325 224.619 543.425 224.811 543.489 225.029C543.553 225.245 543.572 225.475 543.546 225.719H541.233C541.271 225.927 541.364 226.101 541.512 226.241C541.662 226.381 541.846 226.452 542.064 226.454C542.216 226.454 542.354 226.416 542.478 226.34C542.604 226.264 542.707 226.159 542.787 226.025L543.42 226.172C543.3 226.438 543.119 226.656 542.877 226.826C542.635 226.994 542.364 227.078 542.064 227.078ZM541.212 225.242H542.916C542.896 225.1 542.845 224.97 542.763 224.852C542.683 224.734 542.582 224.641 542.46 224.573C542.34 224.503 542.208 224.468 542.064 224.468C541.848 224.468 541.661 224.543 541.503 224.693C541.345 224.841 541.248 225.024 541.212 225.242Z" fill="white"/>
<defs>
<filter id="filter0_dii_669_2" x="304.388" y="233.165" width="26.2329" height="7.2771" filterUnits="userSpaceOnUse" color-interpolation-filters="sRGB">
<feFlood flood-opacity="0" result="BackgroundImageFix"/>
<feColorMatrix in="SourceAlpha" type="matrix" values="0 0 0 0 0 0 0 0 0 0 0 0 0 0 0 0 0 0 127 0" result="hardAlpha"/>
<feOffset dy="1"/>
<feComposite in2="hardAlpha" operator="out"/>
<feColorMatrix type="matrix" values="0 0 0 0 0.670833 0 0 0 0 0.670833 0 0 0 0 0.670833 0 0 0 0.2 0"/>
<feBlend mode="normal" in2="BackgroundImageFix" result="effect1_dropShadow_669_2"/>
<feBlend mode="normal" in="SourceGraphic" in2="effect1_dropShadow_669_2" result="shape"/>
<feColorMatrix in="SourceAlpha" type="matrix" values="0 0 0 0 0 0 0 0 0 0 0 0 0 0 0 0 0 0 127 0" result="hardAlpha"/>
<feOffset dy="-4"/>
<feGaussianBlur stdDeviation="4.5"/>
<feComposite in2="hardAlpha" operator="arithmetic" k2="-1" k3="1"/>
<feColorMatrix type="matrix" values="0 0 0 0 0 0 0 0 0 0 0 0 0 0 0 0 0 0 0.1 0"/>
<feBlend mode="normal" in2="shape" result="effect2_innerShadow_669_2"/>
<feColorMatrix in="SourceAlpha" type="matrix" values="0 0 0 0 0 0 0 0 0 0 0 0 0 0 0 0 0 0 127 0" result="hardAlpha"/>
<feOffset dy="2"/>
<feGaussianBlur stdDeviation="1.5"/>
<feComposite in2="hardAlpha" operator="arithmetic" k2="-1" k3="1"/>
<feColorMatrix type="matrix" values="0 0 0 0 0.870833 0 0 0 0 0.870833 0 0 0 0 0.870833 0 0 0 1 0"/>
<feBlend mode="normal" in2="effect2_innerShadow_669_2" result="effect3_innerShadow_669_2"/>
</filter>
<filter id="filter1_di_669_2" x="277.388" y="179.201" width="80.2329" height="69.9646" filterUnits="userSpaceOnUse" color-interpolation-filters="sRGB">
<feFlood flood-opacity="0" result="BackgroundImageFix"/>
<feColorMatrix in="SourceAlpha" type="matrix" values="0 0 0 0 0 0 0 0 0 0 0 0 0 0 0 0 0 0 127 0" result="hardAlpha"/>
<feOffset dy="-15"/>
<feGaussianBlur stdDeviation="13.5"/>
<feComposite in2="hardAlpha" operator="out"/>
<feColorMatrix type="matrix" values="0 0 0 0 0 0 0 0 0 0 0 0 0 0 0 0 0 0 0.25 0"/>
<feBlend mode="normal" in2="BackgroundImageFix" result="effect1_dropShadow_669_2"/>
<feBlend mode="normal" in="SourceGraphic" in2="effect1_dropShadow_669_2" result="shape"/>
<feColorMatrix in="SourceAlpha" type="matrix" values="0 0 0 0 0 0 0 0 0 0 0 0 0 0 0 0 0 0 127 0" result="hardAlpha"/>
<feOffset dy="7"/>
<feGaussianBlur stdDeviation="5"/>
<feComposite in2="hardAlpha" operator="arithmetic" k2="-1" k3="1"/>
<feColorMatrix type="matrix" values="0 0 0 0 0.545833 0 0 0 0 0.545833 0 0 0 0 0.545833 0 0 0 0.25 0"/>
<feBlend mode="normal" in2="shape" result="effect2_innerShadow_669_2"/>
</filter>
<filter id="filter2_i_669_2" x="304.774" y="238.443" width="3.22827" height="0.134521" filterUnits="userSpaceOnUse" color-interpolation-filters="sRGB">
<feFlood flood-opacity="0" result="BackgroundImageFix"/>
<feBlend mode="normal" in="SourceGraphic" in2="BackgroundImageFix" result="shape"/>
<feColorMatrix in="SourceAlpha" type="matrix" values="0 0 0 0 0 0 0 0 0 0 0 0 0 0 0 0 0 0 127 0" result="hardAlpha"/>
<feOffset/>
<feGaussianBlur stdDeviation="0.5"/>
<feComposite in2="hardAlpha" operator="arithmetic" k2="-1" k3="1"/>
<feColorMatrix type="matrix" values="0 0 0 0 0.5 0 0 0 0 0.5 0 0 0 0 0.5 0 0 0 0.25 0"/>
<feBlend mode="normal" in2="shape" result="effect1_innerShadow_669_2"/>
</filter>
<filter id="filter3_i_669_2" x="326.964" y="238.443" width="3.26221" height="0.134521" filterUnits="userSpaceOnUse" color-interpolation-filters="sRGB">
<feFlood flood-opacity="0" result="BackgroundImageFix"/>
<feBlend mode="normal" in="SourceGraphic" in2="BackgroundImageFix" result="shape"/>
<feColorMatrix in="SourceAlpha" type="matrix" values="0 0 0 0 0 0 0 0 0 0 0 0 0 0 0 0 0 0 127 0" result="hardAlpha"/>
<feOffset/>
<feGaussianBlur stdDeviation="0.5"/>
<feComposite in2="hardAlpha" operator="arithmetic" k2="-1" k3="1"/>
<feColorMatrix type="matrix" values="0 0 0 0 0.5 0 0 0 0 0.5 0 0 0 0 0.5 0 0 0 0.25 0"/>
<feBlend mode="normal" in2="shape" result="effect1_innerShadow_669_2"/>
</filter>
<filter id="filter4_i_669_2" x="265.034" y="161.611" width="104.932" height="59.5566" filterUnits="userSpaceOnUse" color-interpolation-filters="sRGB">
<feFlood flood-opacity="0" result="BackgroundImageFix"/>
<feBlend mode="normal" in="SourceGraphic" in2="BackgroundImageFix" result="shape"/>
<feColorMatrix in="SourceAlpha" type="matrix" values="0 0 0 0 0 0 0 0 0 0 0 0 0 0 0 0 0 0 127 0" result="hardAlpha"/>
<feOffset/>
<feGaussianBlur stdDeviation="2.5"/>
<feComposite in2="hardAlpha" operator="arithmetic" k2="-1" k3="1"/>
<feColorMatrix type="matrix" values="0 0 0 0 0.125 0 0 0 0 0.125 0 0 0 0 0.125 0 0 0 0.2 0"/>
<feBlend mode="normal" in2="shape" result="effect1_innerShadow_669_2"/>
</filter>
<clipPath id="clip0_669_2">
<rect width="105" height="77" fill="white" transform="translate(265 161.577)"/>
</clipPath>
</defs>
</svg>
